M48
;GenerationSoftware,Autodesk,EAGLE,8.7.1*%
;CreationDate,2018-04-16T21:52:04Z*%
FMAT,2
ICI,OFF
METRIC,TZ,000.000
T4C0.350
T3C1.016
T2C2.800
T1C3.200
%
G90
M71
T1
X9790Y100330
X119380Y105780
T2
X114580Y108630
X119380Y112030
X3540Y100330
X6940Y95530
T3
X15240Y11430
X115570Y52070
X115570Y49530
X115570Y46990
X115570Y44450
X115570Y41910
X115570Y39370
X115570Y34290
X115570Y31750
X115570Y29210
X115570Y26670
X115570Y24130
X115570Y21590
X115570Y19050
X115570Y16510
X115570Y13970
X115570Y11430
X115570Y8890
X115570Y6350
X68580Y11430
X123190Y77470
X123190Y80010
X123190Y82550
X123190Y85090
X7620Y72390
X7620Y74930
X7620Y77470
X7620Y80010
X7620Y82550
X7620Y85090
X7620Y11430
X10160Y11430
X12700Y11430
X17780Y11430
X20320Y11430
X22860Y11430
X25400Y11430
X27940Y11430
X30480Y11430
X33020Y11430
X35560Y11430
X38100Y11430
X40640Y11430
X43180Y11430
X45720Y11430
X48260Y11430
X50800Y11430
X53340Y11430
X55880Y11430
X7620Y49530
X10160Y49530
X12700Y49530
X15240Y49530
X17780Y49530
X20320Y49530
X22860Y49530
X25400Y49530
X27940Y49530
X30480Y49530
X33020Y49530
X35560Y49530
X38100Y49530
X40640Y49530
X43180Y49530
X45720Y49530
X48260Y49530
X50800Y49530
X53340Y49530
X55880Y49530
X58420Y11430
X60960Y11430
X63500Y11430
X66040Y11430
X115570Y36830
X71120Y11430
X73660Y11430
X76200Y11430
X78740Y11430
X81280Y11430
X83820Y11430
X86360Y11430
X88900Y11430
X58420Y49530
X60960Y49530
X63500Y49530
X66040Y49530
X68580Y49530
X71120Y49530
X73660Y49530
X76200Y49530
X78740Y49530
X81280Y49530
X83820Y49530
X86360Y49530
X88900Y49530
X29210Y104140
X31750Y104140
X34290Y104140
X36830Y104140
X39370Y104140
X41910Y104140
X44450Y104140
X46990Y104140
X49530Y104140
X52070Y104140
X111760Y54610
X111760Y52070
X111760Y49530
X111760Y46990
X111760Y44450
X111760Y41910
X111760Y39370
X111760Y36830
X111760Y34290
X111760Y31750
X111760Y29210
X111760Y26670
X111760Y24130
X111760Y21590
X111760Y19050
X111760Y16510
X111760Y13970
X111760Y11430
X111760Y8890
X111760Y6350
X115570Y54610
T4
X58420Y57150
X106680Y8890
X64135Y13970
X66675Y22225
X64135Y29210
X53340Y29845
X43815Y23495
X44450Y25400
X45085Y33655
X85725Y34925
X79375Y43815
X78740Y45085
X45720Y46990
X41275Y52705
X79375Y8255
X46990Y8890
X88900Y52070
X113665Y33020
X86360Y27940
X86995Y30480
X53340Y54610
X53975Y53340
X57785Y59055
X85725Y24765
X40005Y53975
X53975Y34925
M30