G04 EAGLE Gerber X2 export*
%TF.Part,Single*%
%TF.FileFunction,Copper,L2,Bot,Mixed*%
%TF.FilePolarity,Positive*%
%TF.GenerationSoftware,Autodesk,EAGLE,8.6.0*%
%TF.CreationDate,2018-04-17T18:32:18Z*%
G75*
%MOMM*%
%FSLAX34Y34*%
%LPD*%
%AMOC8*
5,1,8,0,0,1.08239X$1,22.5*%
G01*
%ADD10C,1.879600*%
%ADD11C,1.524000*%
%ADD12C,4.216000*%
%ADD13C,3.816000*%
%ADD14P,1.732040X8X202.500000*%
%ADD15C,1.600200*%
%ADD16C,0.304800*%
%ADD17C,0.756400*%


D10*
X76200Y723900D03*
X76200Y749300D03*
X76200Y774700D03*
X76200Y800100D03*
X76200Y825500D03*
X76200Y850900D03*
D11*
X76200Y121920D02*
X76200Y106680D01*
X101600Y106680D02*
X101600Y121920D01*
X127000Y121920D02*
X127000Y106680D01*
X152400Y106680D02*
X152400Y121920D01*
X177800Y121920D02*
X177800Y106680D01*
X203200Y106680D02*
X203200Y121920D01*
X228600Y121920D02*
X228600Y106680D01*
X254000Y106680D02*
X254000Y121920D01*
X279400Y121920D02*
X279400Y106680D01*
X304800Y106680D02*
X304800Y121920D01*
X330200Y121920D02*
X330200Y106680D01*
X355600Y106680D02*
X355600Y121920D01*
X381000Y121920D02*
X381000Y106680D01*
X406400Y106680D02*
X406400Y121920D01*
X431800Y121920D02*
X431800Y106680D01*
X457200Y106680D02*
X457200Y121920D01*
X482600Y121920D02*
X482600Y106680D01*
X508000Y106680D02*
X508000Y121920D01*
X533400Y121920D02*
X533400Y106680D01*
X558800Y106680D02*
X558800Y121920D01*
X76200Y487680D02*
X76200Y502920D01*
X101600Y502920D02*
X101600Y487680D01*
X127000Y487680D02*
X127000Y502920D01*
X152400Y502920D02*
X152400Y487680D01*
X177800Y487680D02*
X177800Y502920D01*
X203200Y502920D02*
X203200Y487680D01*
X228600Y487680D02*
X228600Y502920D01*
X254000Y502920D02*
X254000Y487680D01*
X279400Y487680D02*
X279400Y502920D01*
X304800Y502920D02*
X304800Y487680D01*
X330200Y487680D02*
X330200Y502920D01*
X355600Y502920D02*
X355600Y487680D01*
X381000Y487680D02*
X381000Y502920D01*
X406400Y502920D02*
X406400Y487680D01*
X431800Y487680D02*
X431800Y502920D01*
X457200Y502920D02*
X457200Y487680D01*
X482600Y487680D02*
X482600Y502920D01*
X508000Y502920D02*
X508000Y487680D01*
X533400Y487680D02*
X533400Y502920D01*
X558800Y502920D02*
X558800Y487680D01*
X584200Y121920D02*
X584200Y106680D01*
X609600Y106680D02*
X609600Y121920D01*
X635000Y121920D02*
X635000Y106680D01*
X660400Y106680D02*
X660400Y121920D01*
X685800Y121920D02*
X685800Y106680D01*
X711200Y106680D02*
X711200Y121920D01*
X736600Y121920D02*
X736600Y106680D01*
X762000Y106680D02*
X762000Y121920D01*
X787400Y121920D02*
X787400Y106680D01*
X812800Y106680D02*
X812800Y121920D01*
X838200Y121920D02*
X838200Y106680D01*
X863600Y106680D02*
X863600Y121920D01*
X889000Y121920D02*
X889000Y106680D01*
X584200Y487680D02*
X584200Y502920D01*
X609600Y502920D02*
X609600Y487680D01*
X635000Y487680D02*
X635000Y502920D01*
X660400Y502920D02*
X660400Y487680D01*
X685800Y487680D02*
X685800Y502920D01*
X711200Y502920D02*
X711200Y487680D01*
X736600Y487680D02*
X736600Y502920D01*
X762000Y502920D02*
X762000Y487680D01*
X787400Y487680D02*
X787400Y502920D01*
X812800Y502920D02*
X812800Y487680D01*
X838200Y487680D02*
X838200Y502920D01*
X863600Y502920D02*
X863600Y487680D01*
X889000Y487680D02*
X889000Y502920D01*
X292100Y1033780D02*
X292100Y1049020D01*
X317500Y1049020D02*
X317500Y1033780D01*
X342900Y1033780D02*
X342900Y1049020D01*
X368300Y1049020D02*
X368300Y1033780D01*
X393700Y1033780D02*
X393700Y1049020D01*
X419100Y1049020D02*
X419100Y1033780D01*
X444500Y1033780D02*
X444500Y1049020D01*
X469900Y1049020D02*
X469900Y1033780D01*
X495300Y1033780D02*
X495300Y1049020D01*
X520700Y1049020D02*
X520700Y1033780D01*
X1236980Y546100D02*
X1252220Y546100D01*
X1252220Y520700D02*
X1236980Y520700D01*
X1236980Y495300D02*
X1252220Y495300D01*
X1252220Y469900D02*
X1236980Y469900D01*
X1236980Y444500D02*
X1252220Y444500D01*
X1252220Y419100D02*
X1236980Y419100D01*
X1236980Y393700D02*
X1252220Y393700D01*
X1252220Y368300D02*
X1236980Y368300D01*
X1236980Y342900D02*
X1252220Y342900D01*
X1252220Y317500D02*
X1236980Y317500D01*
X1236980Y292100D02*
X1252220Y292100D01*
X1252220Y266700D02*
X1236980Y266700D01*
X1236980Y241300D02*
X1252220Y241300D01*
X1252220Y215900D02*
X1236980Y215900D01*
X1236980Y190500D02*
X1252220Y190500D01*
X1252220Y165100D02*
X1236980Y165100D01*
X1236980Y139700D02*
X1252220Y139700D01*
X1252220Y114300D02*
X1236980Y114300D01*
X1236980Y88900D02*
X1252220Y88900D01*
X1252220Y63500D02*
X1236980Y63500D01*
X1275080Y546100D02*
X1290320Y546100D01*
X1290320Y520700D02*
X1275080Y520700D01*
X1275080Y495300D02*
X1290320Y495300D01*
X1290320Y469900D02*
X1275080Y469900D01*
X1275080Y444500D02*
X1290320Y444500D01*
X1290320Y419100D02*
X1275080Y419100D01*
X1275080Y393700D02*
X1290320Y393700D01*
X1290320Y368300D02*
X1275080Y368300D01*
X1275080Y342900D02*
X1290320Y342900D01*
X1290320Y317500D02*
X1275080Y317500D01*
X1275080Y292100D02*
X1290320Y292100D01*
X1290320Y266700D02*
X1275080Y266700D01*
X1275080Y241300D02*
X1290320Y241300D01*
X1290320Y215900D02*
X1275080Y215900D01*
X1275080Y190500D02*
X1290320Y190500D01*
X1290320Y165100D02*
X1275080Y165100D01*
X1275080Y139700D02*
X1290320Y139700D01*
X1290320Y114300D02*
X1275080Y114300D01*
X1275080Y88900D02*
X1290320Y88900D01*
X1290320Y63500D02*
X1275080Y63500D01*
D12*
X1299100Y1079500D03*
D13*
X1361600Y1079500D03*
X1327600Y1127500D03*
D11*
X1325880Y850900D02*
X1341120Y850900D01*
X1341120Y876300D02*
X1325880Y876300D01*
X1325880Y901700D02*
X1341120Y901700D01*
X1341120Y927100D02*
X1325880Y927100D01*
D14*
X1079500Y927100D03*
D15*
X1104900Y927100D03*
D14*
X1079500Y850900D03*
D15*
X1104900Y850900D03*
D14*
X1079500Y749300D03*
D15*
X1104900Y749300D03*
D14*
X1079500Y673100D03*
D15*
X1104900Y673100D03*
D11*
X1325880Y673100D02*
X1341120Y673100D01*
X1341120Y698500D02*
X1325880Y698500D01*
X1325880Y723900D02*
X1341120Y723900D01*
X1341120Y749300D02*
X1325880Y749300D01*
X1214120Y914400D02*
X1198880Y914400D01*
X1198880Y889000D02*
X1214120Y889000D01*
X1214120Y863600D02*
X1198880Y863600D01*
X1198880Y736600D02*
X1214120Y736600D01*
X1214120Y711200D02*
X1198880Y711200D01*
X1198880Y685800D02*
X1214120Y685800D01*
D16*
X633222Y539496D02*
X633222Y496062D01*
X633222Y539496D02*
X400050Y772668D01*
X77724Y772668D01*
X633222Y496062D02*
X635000Y495300D01*
X77724Y772668D02*
X76200Y774700D01*
X640080Y475488D02*
X658368Y493776D01*
X640080Y475488D02*
X326898Y475488D01*
X315468Y486918D01*
X315468Y509778D01*
X77724Y747522D01*
X658368Y493776D02*
X660400Y495300D01*
X77724Y747522D02*
X76200Y749300D01*
D11*
X1327600Y1127500D02*
X1361600Y1093500D01*
X1361600Y1079500D01*
X1361600Y993300D01*
X1333500Y965200D01*
X1333500Y927100D01*
X1333500Y876300D02*
X1308100Y876300D01*
X1282700Y901700D01*
X1282700Y952500D01*
X1295400Y965200D01*
X1333500Y965200D01*
X1282700Y800100D02*
X1333500Y749300D01*
X1282700Y800100D02*
X1282700Y863600D01*
X1282700Y901700D01*
X1324864Y707136D02*
X1333500Y698500D01*
X1324864Y707136D02*
X1318936Y707136D01*
X1282700Y743372D01*
X1282700Y800100D01*
X1250528Y711200D02*
X1206500Y711200D01*
X1250528Y711200D02*
X1282700Y743372D01*
X1219200Y889000D02*
X1206500Y889000D01*
X1219200Y889000D02*
X1244600Y863600D01*
X1282700Y863600D01*
X1079500Y850900D02*
X1079500Y927100D01*
X1079500Y850900D02*
X1079500Y749300D01*
X1079500Y673100D01*
X513756Y1065784D02*
X503936Y1055964D01*
X503936Y1050036D02*
X495300Y1041400D01*
X503936Y1050036D02*
X503936Y1055964D01*
X513756Y1065784D02*
X1131316Y1065784D01*
X1244600Y952500D01*
X1282700Y952500D01*
X1079500Y749300D02*
X1117600Y711200D01*
X1206500Y711200D01*
X495300Y1016000D02*
X495300Y1041400D01*
X495300Y1016000D02*
X482600Y1003300D01*
X406400Y1003300D01*
X393700Y1016000D01*
X393700Y1041400D01*
X317500Y1041400D02*
X317500Y1016000D01*
X330200Y1003300D01*
X381000Y1003300D01*
X393700Y1016000D01*
X76200Y901700D02*
X76200Y850900D01*
X304800Y1003300D02*
X317500Y1016000D01*
X177800Y1003300D02*
X76200Y901700D01*
X177800Y1003300D02*
X304800Y1003300D01*
X76200Y850900D02*
X50800Y850900D01*
X38100Y838200D01*
X38100Y558800D01*
X77216Y519684D01*
X83144Y519684D01*
X92964Y509864D01*
X92964Y503936D01*
X101600Y495300D01*
X101600Y114300D01*
X110236Y105664D01*
X110236Y99736D01*
X133772Y76200D01*
X270764Y99736D02*
X270764Y105664D01*
X279400Y114300D01*
X247228Y76200D02*
X133772Y76200D01*
X247228Y76200D02*
X270764Y99736D01*
X279400Y114300D02*
X288036Y105664D01*
X288036Y99736D01*
X311572Y76200D01*
X863600Y76200D01*
X889000Y101600D01*
X889000Y114300D01*
X889000Y495300D01*
D16*
X610362Y420624D02*
X610362Y114300D01*
X610362Y420624D02*
X672084Y482346D01*
X672084Y813816D01*
X493776Y992124D01*
X609600Y114300D02*
X610362Y114300D01*
D17*
X493776Y992124D03*
D16*
X660654Y445770D02*
X660654Y114300D01*
X660654Y445770D02*
X697230Y482346D01*
X697230Y813816D01*
X505206Y1005840D01*
X660400Y114300D02*
X660654Y114300D01*
D17*
X505206Y1005840D03*
D16*
X525780Y45720D02*
X1227582Y45720D01*
X1243584Y61722D01*
X1244600Y63500D01*
D17*
X525780Y45720D03*
D16*
X544068Y54864D02*
X816102Y54864D01*
X820674Y59436D01*
X1209294Y59436D01*
X1236726Y86868D01*
X1243584Y86868D01*
X1244600Y88900D01*
D17*
X544068Y54864D03*
D16*
X562356Y61722D02*
X816102Y61722D01*
X818388Y64008D01*
X875538Y64008D01*
X925830Y114300D01*
X1244600Y114300D01*
D17*
X562356Y61722D03*
D16*
X825246Y276606D02*
X868680Y233172D01*
D17*
X868680Y233172D03*
X825246Y276606D03*
D16*
X843534Y269748D02*
X875538Y269748D01*
D17*
X843534Y269748D03*
X875538Y269748D03*
D16*
X1223010Y322326D02*
X1229868Y329184D01*
X1257300Y329184D01*
X1264158Y322326D01*
X1264158Y285750D01*
X1245870Y267462D01*
X1244600Y266700D01*
D17*
X1223010Y322326D03*
D16*
X1056132Y192024D02*
X1056132Y132588D01*
X1056132Y192024D02*
X1154430Y290322D01*
D17*
X1056132Y132588D03*
X1154430Y290322D03*
D16*
X1062990Y187452D02*
X1062990Y150876D01*
X1062990Y187452D02*
X1191006Y315468D01*
X1243584Y315468D01*
X1244600Y317500D01*
D17*
X1062990Y150876D03*
D16*
X409194Y86868D02*
X381762Y114300D01*
X409194Y86868D02*
X708660Y86868D01*
X724662Y102870D01*
X724662Y187452D01*
X859536Y322326D01*
X875538Y322326D01*
X381762Y114300D02*
X381000Y114300D01*
D17*
X875538Y322326D03*
D16*
X429768Y91440D02*
X406908Y114300D01*
X429768Y91440D02*
X685800Y91440D01*
X699516Y105156D01*
X1014984Y352044D02*
X1227582Y352044D01*
X1243584Y368046D01*
X406908Y114300D02*
X406400Y114300D01*
X1243584Y368046D02*
X1244600Y368300D01*
D17*
X875538Y377444D03*
X1014984Y352044D03*
D16*
X875538Y377444D02*
X699516Y201422D01*
X699516Y105156D01*
X711200Y114300D02*
X713232Y114300D01*
D17*
X875538Y356870D03*
D16*
X864870Y356870D01*
X713232Y205232D02*
X713232Y114300D01*
X713232Y205232D02*
X864870Y356870D01*
X1245870Y445770D02*
X1259586Y445770D01*
X1271016Y457200D01*
X1293876Y457200D01*
X1303020Y466344D01*
X1303020Y473202D01*
X1291590Y484632D01*
X1268730Y484632D01*
X1264158Y489204D01*
X1264158Y500634D01*
X1255014Y509778D01*
X1213866Y509778D01*
X1204722Y518922D01*
X786384Y518922D01*
X763524Y496062D01*
X1244600Y444500D02*
X1245870Y445770D01*
X763524Y496062D02*
X762000Y495300D01*
X1268730Y64008D02*
X1282446Y64008D01*
X1268730Y64008D02*
X1257300Y75438D01*
X1232154Y75438D01*
X1209294Y52578D01*
X825246Y52578D01*
X1282446Y64008D02*
X1282700Y63500D01*
D17*
X825246Y52578D03*
D16*
X900684Y77724D02*
X1195578Y77724D01*
D17*
X1195578Y77724D03*
X900684Y77724D03*
D16*
X960120Y70866D02*
X1202436Y70866D01*
X1234440Y102870D01*
X1271016Y102870D01*
X1282446Y114300D01*
X1282700Y114300D01*
D17*
X960120Y70866D03*
D16*
X1307592Y265176D02*
X1307592Y530352D01*
X1307592Y265176D02*
X1284732Y242316D01*
X1282700Y241300D01*
D17*
X1307592Y530352D03*
D16*
X1163574Y185166D02*
X1072134Y185166D01*
X1163574Y185166D02*
X1234440Y256032D01*
X1273302Y256032D01*
X1282446Y265176D01*
X1282700Y266700D01*
D17*
X1072134Y185166D03*
D16*
X875538Y150876D02*
X838962Y114300D01*
X838200Y114300D01*
D17*
X875538Y150876D03*
D16*
X509778Y496062D02*
X587502Y573786D01*
X509778Y496062D02*
X508000Y495300D01*
D17*
X587502Y573786D03*
D16*
X585216Y546354D02*
X534924Y496062D01*
X1223010Y544068D02*
X1234440Y532638D01*
X1271016Y532638D01*
X1282446Y521208D01*
X534924Y496062D02*
X533400Y495300D01*
X1282446Y521208D02*
X1282700Y520700D01*
D17*
X585216Y546354D03*
X1223010Y544068D03*
D16*
X560070Y292608D02*
X560070Y114300D01*
X667512Y400050D02*
X749808Y482346D01*
X749808Y507492D01*
X788670Y546354D01*
X1213866Y546354D01*
X1225296Y557784D01*
X1293876Y557784D01*
X1303020Y548640D01*
X1303020Y537210D01*
X1300734Y534924D01*
X1300734Y525780D01*
X1303020Y523494D01*
X1303020Y514350D01*
X1284732Y496062D01*
X560070Y114300D02*
X558800Y114300D01*
X1282700Y495300D02*
X1284732Y496062D01*
D17*
X560070Y292608D03*
X667512Y400050D03*
D16*
X534924Y114300D02*
X553212Y96012D01*
X665226Y96012D01*
X674370Y105156D01*
X674370Y281178D01*
X877824Y484632D01*
X877824Y507492D01*
X884682Y514350D01*
X1202436Y514350D01*
X1234440Y482346D01*
X1264158Y482346D01*
X1275588Y470916D01*
X1282446Y470916D01*
X534924Y114300D02*
X533400Y114300D01*
X1282700Y469900D02*
X1282446Y470916D01*
X420624Y560070D02*
X356616Y496062D01*
X355600Y495300D01*
D17*
X420624Y560070D03*
D11*
X1206500Y647700D02*
X1206500Y685800D01*
X1206500Y647700D02*
X1219200Y635000D01*
X1333500Y635000D01*
X1358900Y660400D01*
X1358900Y825500D01*
X1333500Y850900D01*
M02*
