G04 EAGLE Gerber X2 export*
%TF.Part,Single*%
%TF.FileFunction,Copper,L1,Top,Mixed*%
%TF.FilePolarity,Positive*%
%TF.GenerationSoftware,Autodesk,EAGLE,8.6.0*%
%TF.CreationDate,2018-04-17T18:32:18Z*%
G75*
%MOMM*%
%FSLAX34Y34*%
%LPD*%
%AMOC8*
5,1,8,0,0,1.08239X$1,22.5*%
G01*
%ADD10C,1.879600*%
%ADD11C,1.524000*%
%ADD12C,4.216000*%
%ADD13C,3.816000*%
%ADD14P,1.732040X8X202.500000*%
%ADD15C,1.600200*%
%ADD16C,0.304800*%
%ADD17C,0.756400*%


D10*
X76200Y723900D03*
X76200Y749300D03*
X76200Y774700D03*
X76200Y800100D03*
X76200Y825500D03*
X76200Y850900D03*
D11*
X76200Y121920D02*
X76200Y106680D01*
X101600Y106680D02*
X101600Y121920D01*
X127000Y121920D02*
X127000Y106680D01*
X152400Y106680D02*
X152400Y121920D01*
X177800Y121920D02*
X177800Y106680D01*
X203200Y106680D02*
X203200Y121920D01*
X228600Y121920D02*
X228600Y106680D01*
X254000Y106680D02*
X254000Y121920D01*
X279400Y121920D02*
X279400Y106680D01*
X304800Y106680D02*
X304800Y121920D01*
X330200Y121920D02*
X330200Y106680D01*
X355600Y106680D02*
X355600Y121920D01*
X381000Y121920D02*
X381000Y106680D01*
X406400Y106680D02*
X406400Y121920D01*
X431800Y121920D02*
X431800Y106680D01*
X457200Y106680D02*
X457200Y121920D01*
X482600Y121920D02*
X482600Y106680D01*
X508000Y106680D02*
X508000Y121920D01*
X533400Y121920D02*
X533400Y106680D01*
X558800Y106680D02*
X558800Y121920D01*
X76200Y487680D02*
X76200Y502920D01*
X101600Y502920D02*
X101600Y487680D01*
X127000Y487680D02*
X127000Y502920D01*
X152400Y502920D02*
X152400Y487680D01*
X177800Y487680D02*
X177800Y502920D01*
X203200Y502920D02*
X203200Y487680D01*
X228600Y487680D02*
X228600Y502920D01*
X254000Y502920D02*
X254000Y487680D01*
X279400Y487680D02*
X279400Y502920D01*
X304800Y502920D02*
X304800Y487680D01*
X330200Y487680D02*
X330200Y502920D01*
X355600Y502920D02*
X355600Y487680D01*
X381000Y487680D02*
X381000Y502920D01*
X406400Y502920D02*
X406400Y487680D01*
X431800Y487680D02*
X431800Y502920D01*
X457200Y502920D02*
X457200Y487680D01*
X482600Y487680D02*
X482600Y502920D01*
X508000Y502920D02*
X508000Y487680D01*
X533400Y487680D02*
X533400Y502920D01*
X558800Y502920D02*
X558800Y487680D01*
X584200Y121920D02*
X584200Y106680D01*
X609600Y106680D02*
X609600Y121920D01*
X635000Y121920D02*
X635000Y106680D01*
X660400Y106680D02*
X660400Y121920D01*
X685800Y121920D02*
X685800Y106680D01*
X711200Y106680D02*
X711200Y121920D01*
X736600Y121920D02*
X736600Y106680D01*
X762000Y106680D02*
X762000Y121920D01*
X787400Y121920D02*
X787400Y106680D01*
X812800Y106680D02*
X812800Y121920D01*
X838200Y121920D02*
X838200Y106680D01*
X863600Y106680D02*
X863600Y121920D01*
X889000Y121920D02*
X889000Y106680D01*
X584200Y487680D02*
X584200Y502920D01*
X609600Y502920D02*
X609600Y487680D01*
X635000Y487680D02*
X635000Y502920D01*
X660400Y502920D02*
X660400Y487680D01*
X685800Y487680D02*
X685800Y502920D01*
X711200Y502920D02*
X711200Y487680D01*
X736600Y487680D02*
X736600Y502920D01*
X762000Y502920D02*
X762000Y487680D01*
X787400Y487680D02*
X787400Y502920D01*
X812800Y502920D02*
X812800Y487680D01*
X838200Y487680D02*
X838200Y502920D01*
X863600Y502920D02*
X863600Y487680D01*
X889000Y487680D02*
X889000Y502920D01*
X292100Y1033780D02*
X292100Y1049020D01*
X317500Y1049020D02*
X317500Y1033780D01*
X342900Y1033780D02*
X342900Y1049020D01*
X368300Y1049020D02*
X368300Y1033780D01*
X393700Y1033780D02*
X393700Y1049020D01*
X419100Y1049020D02*
X419100Y1033780D01*
X444500Y1033780D02*
X444500Y1049020D01*
X469900Y1049020D02*
X469900Y1033780D01*
X495300Y1033780D02*
X495300Y1049020D01*
X520700Y1049020D02*
X520700Y1033780D01*
X1236980Y546100D02*
X1252220Y546100D01*
X1252220Y520700D02*
X1236980Y520700D01*
X1236980Y495300D02*
X1252220Y495300D01*
X1252220Y469900D02*
X1236980Y469900D01*
X1236980Y444500D02*
X1252220Y444500D01*
X1252220Y419100D02*
X1236980Y419100D01*
X1236980Y393700D02*
X1252220Y393700D01*
X1252220Y368300D02*
X1236980Y368300D01*
X1236980Y342900D02*
X1252220Y342900D01*
X1252220Y317500D02*
X1236980Y317500D01*
X1236980Y292100D02*
X1252220Y292100D01*
X1252220Y266700D02*
X1236980Y266700D01*
X1236980Y241300D02*
X1252220Y241300D01*
X1252220Y215900D02*
X1236980Y215900D01*
X1236980Y190500D02*
X1252220Y190500D01*
X1252220Y165100D02*
X1236980Y165100D01*
X1236980Y139700D02*
X1252220Y139700D01*
X1252220Y114300D02*
X1236980Y114300D01*
X1236980Y88900D02*
X1252220Y88900D01*
X1252220Y63500D02*
X1236980Y63500D01*
X1275080Y546100D02*
X1290320Y546100D01*
X1290320Y520700D02*
X1275080Y520700D01*
X1275080Y495300D02*
X1290320Y495300D01*
X1290320Y469900D02*
X1275080Y469900D01*
X1275080Y444500D02*
X1290320Y444500D01*
X1290320Y419100D02*
X1275080Y419100D01*
X1275080Y393700D02*
X1290320Y393700D01*
X1290320Y368300D02*
X1275080Y368300D01*
X1275080Y342900D02*
X1290320Y342900D01*
X1290320Y317500D02*
X1275080Y317500D01*
X1275080Y292100D02*
X1290320Y292100D01*
X1290320Y266700D02*
X1275080Y266700D01*
X1275080Y241300D02*
X1290320Y241300D01*
X1290320Y215900D02*
X1275080Y215900D01*
X1275080Y190500D02*
X1290320Y190500D01*
X1290320Y165100D02*
X1275080Y165100D01*
X1275080Y139700D02*
X1290320Y139700D01*
X1290320Y114300D02*
X1275080Y114300D01*
X1275080Y88900D02*
X1290320Y88900D01*
X1290320Y63500D02*
X1275080Y63500D01*
D12*
X1299100Y1079500D03*
D13*
X1361600Y1079500D03*
X1327600Y1127500D03*
D11*
X1325880Y850900D02*
X1341120Y850900D01*
X1341120Y876300D02*
X1325880Y876300D01*
X1325880Y901700D02*
X1341120Y901700D01*
X1341120Y927100D02*
X1325880Y927100D01*
D14*
X1079500Y927100D03*
D15*
X1104900Y927100D03*
D14*
X1079500Y850900D03*
D15*
X1104900Y850900D03*
D14*
X1079500Y749300D03*
D15*
X1104900Y749300D03*
D14*
X1079500Y673100D03*
D15*
X1104900Y673100D03*
D11*
X1325880Y673100D02*
X1341120Y673100D01*
X1341120Y698500D02*
X1325880Y698500D01*
X1325880Y723900D02*
X1341120Y723900D01*
X1341120Y749300D02*
X1325880Y749300D01*
X1214120Y914400D02*
X1198880Y914400D01*
X1198880Y889000D02*
X1214120Y889000D01*
X1214120Y863600D02*
X1198880Y863600D01*
X1198880Y736600D02*
X1214120Y736600D01*
X1214120Y711200D02*
X1198880Y711200D01*
X1198880Y685800D02*
X1214120Y685800D01*
X1193800Y850900D02*
X1206500Y863600D01*
X1193800Y850900D02*
X1104900Y850900D01*
X1009650Y946150D01*
X977900Y977900D01*
X584200Y977900D01*
X520700Y1041400D01*
X351536Y1032764D02*
X342900Y1041400D01*
X351536Y1032764D02*
X351536Y1026836D01*
X425872Y952500D01*
X558800Y952500D01*
X584200Y977900D01*
X228600Y800100D02*
X76200Y800100D01*
X228600Y800100D02*
X342900Y914400D01*
X342900Y1041400D01*
X76200Y571500D02*
X76200Y495300D01*
X76200Y571500D02*
X419100Y914400D01*
X977900Y914400D02*
X1009650Y946150D01*
X977900Y914400D02*
X419100Y914400D01*
D16*
X493776Y992124D02*
X444500Y1041400D01*
D17*
X493776Y992124D03*
D16*
X505206Y1005840D02*
X470916Y1040130D01*
X469900Y1041400D01*
D17*
X505206Y1005840D03*
D16*
X457200Y114300D02*
X525780Y45720D01*
D17*
X525780Y45720D03*
D16*
X544068Y54864D02*
X484632Y114300D01*
X482600Y114300D01*
D17*
X544068Y54864D03*
D16*
X562356Y61722D02*
X509778Y114300D01*
X508000Y114300D01*
D17*
X562356Y61722D03*
D16*
X585216Y114300D02*
X658368Y41148D01*
X941832Y41148D01*
X1058418Y157734D01*
X1227582Y157734D01*
X1243584Y141732D01*
X585216Y114300D02*
X584200Y114300D01*
X1243584Y141732D02*
X1244600Y139700D01*
X653796Y132588D02*
X635508Y114300D01*
X653796Y132588D02*
X793242Y132588D01*
X800100Y125730D01*
X800100Y102870D01*
X816102Y86868D01*
X980694Y86868D01*
X1058418Y164592D01*
X1243584Y164592D01*
X635508Y114300D02*
X635000Y114300D01*
X1243584Y164592D02*
X1244600Y165100D01*
X1243584Y192024D02*
X1026414Y192024D01*
X930402Y96012D01*
X857250Y96012D01*
X850392Y102870D01*
X850392Y329184D01*
X685800Y493776D01*
X1243584Y192024D02*
X1244600Y190500D01*
X685800Y493776D02*
X685800Y495300D01*
X884682Y217170D02*
X1243584Y217170D01*
X884682Y217170D02*
X868680Y233172D01*
X825246Y276606D02*
X608076Y493776D01*
X1243584Y217170D02*
X1244600Y215900D01*
X609600Y495300D02*
X608076Y493776D01*
D17*
X868680Y233172D03*
X825246Y276606D03*
D16*
X809244Y269748D02*
X585216Y493776D01*
X809244Y269748D02*
X843534Y269748D01*
X875538Y269748D02*
X1216152Y269748D01*
X1244600Y241300D01*
X585216Y493776D02*
X584200Y495300D01*
D17*
X843534Y269748D03*
X875538Y269748D03*
D16*
X475488Y514350D02*
X457200Y496062D01*
X475488Y514350D02*
X715518Y514350D01*
X724662Y505206D01*
X724662Y461772D01*
X859536Y326898D01*
X859536Y320040D01*
X868680Y310896D01*
X1211580Y310896D01*
X1223010Y322326D01*
X457200Y495300D02*
X457200Y496062D01*
D17*
X1223010Y322326D03*
D16*
X416052Y29718D02*
X331470Y114300D01*
X416052Y29718D02*
X953262Y29718D01*
X1056132Y132588D01*
X1154430Y290322D02*
X1243584Y290322D01*
X331470Y114300D02*
X330200Y114300D01*
X1243584Y290322D02*
X1244600Y292100D01*
D17*
X1056132Y132588D03*
X1154430Y290322D03*
D16*
X436626Y34290D02*
X356616Y114300D01*
X436626Y34290D02*
X946404Y34290D01*
X1062990Y150876D01*
X356616Y114300D02*
X355600Y114300D01*
D17*
X1062990Y150876D03*
D16*
X1003554Y322326D02*
X875538Y322326D01*
X1003554Y322326D02*
X1024128Y342900D01*
X1244600Y342900D01*
D17*
X875538Y322326D03*
X875538Y377444D03*
X1014984Y352044D03*
D16*
X989584Y377444D02*
X875538Y377444D01*
X989584Y377444D02*
X1014984Y352044D01*
X1005840Y331470D02*
X1067562Y393192D01*
X1243584Y393192D01*
X1244600Y393700D01*
D17*
X875538Y356870D03*
D16*
X900938Y331470D01*
X1005840Y331470D01*
X994410Y420624D02*
X1243584Y420624D01*
X994410Y420624D02*
X896112Y518922D01*
X811530Y518922D01*
X788670Y496062D01*
X1243584Y420624D02*
X1244600Y419100D01*
X788670Y496062D02*
X787400Y495300D01*
X957834Y470916D02*
X1243584Y470916D01*
X957834Y470916D02*
X900684Y528066D01*
X464058Y528066D01*
X432054Y496062D01*
X1243584Y470916D02*
X1244600Y469900D01*
X432054Y496062D02*
X431800Y495300D01*
X404622Y493776D02*
X386334Y475488D01*
X377190Y475488D01*
X370332Y482346D01*
X370332Y507492D01*
X402336Y539496D01*
X699516Y539496D01*
X701802Y541782D01*
X1213866Y541782D01*
X1223010Y532638D01*
X1257300Y532638D01*
X1264158Y525780D01*
X1264158Y514350D01*
X1245870Y496062D01*
X406400Y495300D02*
X404622Y493776D01*
X1244600Y495300D02*
X1245870Y496062D01*
X420624Y534924D02*
X381000Y495300D01*
X420624Y534924D02*
X701802Y534924D01*
X704088Y537210D01*
X1211580Y537210D01*
X1227582Y521208D01*
X1243584Y521208D01*
X1244600Y520700D01*
X825246Y52578D02*
X763524Y114300D01*
X762000Y114300D01*
D17*
X825246Y52578D03*
D16*
X1266444Y86868D02*
X1282446Y86868D01*
X1266444Y86868D02*
X1257300Y77724D01*
X1195578Y77724D01*
X900684Y77724D02*
X818388Y77724D01*
X788670Y107442D01*
X788670Y114300D01*
X1282446Y86868D02*
X1282700Y88900D01*
X788670Y114300D02*
X787400Y114300D01*
D17*
X1195578Y77724D03*
X900684Y77724D03*
D16*
X306324Y441198D02*
X306324Y493776D01*
X306324Y441198D02*
X624078Y123444D01*
X624078Y100584D01*
X678942Y45720D01*
X934974Y45720D01*
X960120Y70866D01*
X306324Y493776D02*
X304800Y495300D01*
D17*
X960120Y70866D03*
D16*
X281178Y162306D02*
X281178Y493776D01*
X281178Y162306D02*
X317754Y125730D01*
X317754Y102870D01*
X395478Y25146D01*
X1131570Y25146D01*
X1234440Y128016D01*
X1271016Y128016D01*
X1282700Y139700D01*
X281178Y493776D02*
X279400Y495300D01*
X256032Y493776D02*
X256032Y162306D01*
X292608Y125730D01*
X292608Y102870D01*
X374904Y20574D01*
X1264158Y20574D01*
X1303020Y59436D01*
X1303020Y146304D01*
X1284732Y164592D01*
X256032Y493776D02*
X254000Y495300D01*
X1282700Y165100D02*
X1284732Y164592D01*
X228600Y164592D02*
X228600Y495300D01*
X228600Y164592D02*
X267462Y125730D01*
X267462Y102870D01*
X356616Y13716D01*
X1264158Y13716D01*
X1307592Y57150D01*
X1307592Y166878D01*
X1284732Y189738D01*
X1282700Y190500D01*
X224028Y566928D02*
X152400Y495300D01*
X224028Y566928D02*
X1248156Y566928D01*
X1264158Y550926D01*
X1264158Y541782D01*
X1273302Y532638D01*
X1293876Y532638D01*
X1303020Y523494D01*
X1303020Y235458D01*
X1284732Y217170D01*
X1282700Y215900D01*
X212598Y580644D02*
X128016Y496062D01*
X212598Y580644D02*
X1271016Y580644D01*
X1307592Y544068D01*
X1307592Y530352D01*
X128016Y496062D02*
X127000Y495300D01*
D17*
X1307592Y530352D03*
D16*
X836676Y91440D02*
X813816Y114300D01*
X836676Y91440D02*
X978408Y91440D01*
X1072134Y185166D01*
X813816Y114300D02*
X812800Y114300D01*
D17*
X1072134Y185166D03*
D16*
X978408Y150876D02*
X875538Y150876D01*
X978408Y150876D02*
X1030986Y203454D01*
X1255014Y203454D01*
X1264158Y212598D01*
X1264158Y272034D01*
X1282446Y290322D01*
X1282700Y292100D01*
D17*
X875538Y150876D03*
D16*
X861822Y114300D02*
X861822Y267462D01*
X900684Y306324D01*
X1273302Y306324D01*
X1282446Y315468D01*
X863600Y114300D02*
X861822Y114300D01*
X1282446Y315468D02*
X1282700Y317500D01*
X1282700Y342900D02*
X1268730Y342900D01*
X1255014Y329184D01*
X1017270Y329184D01*
X1003554Y315468D01*
X870966Y315468D01*
X864108Y322326D01*
X864108Y493776D01*
X863600Y495300D01*
X1264158Y388620D02*
X1282446Y370332D01*
X1264158Y388620D02*
X1264158Y397764D01*
X1255014Y406908D01*
X1001268Y406908D01*
X893826Y514350D01*
X857250Y514350D01*
X838200Y495300D01*
X1282446Y370332D02*
X1282700Y368300D01*
X1282446Y395478D02*
X1264158Y413766D01*
X1264158Y422910D01*
X1255014Y432054D01*
X989838Y432054D01*
X898398Y523494D01*
X790956Y523494D01*
X774954Y507492D01*
X774954Y484632D01*
X784098Y475488D01*
X793242Y475488D01*
X811530Y493776D01*
X1282446Y395478D02*
X1282700Y393700D01*
X812800Y495300D02*
X811530Y493776D01*
X587502Y573786D02*
X1255014Y573786D01*
X1282700Y546100D01*
D17*
X587502Y573786D03*
D16*
X585216Y546354D02*
X1220724Y546354D01*
X1223010Y544068D01*
D17*
X585216Y546354D03*
X1223010Y544068D03*
X560070Y292608D03*
X667512Y400050D03*
D16*
X560070Y292608D01*
X420624Y560070D02*
X1229868Y560070D01*
X1243584Y546354D01*
X1244600Y546100D01*
D17*
X420624Y560070D03*
D11*
X1299100Y1025000D02*
X1299100Y1079500D01*
X1299100Y1025000D02*
X1371600Y952500D01*
X1348064Y732536D02*
X1342136Y732536D01*
X1333500Y723900D01*
X1371600Y812800D02*
X1371600Y952500D01*
X1371600Y812800D02*
X1371600Y756072D01*
X1348064Y732536D01*
X1342136Y681736D02*
X1333500Y673100D01*
X1342136Y681736D02*
X1348064Y681736D01*
X1371600Y705272D01*
X1371600Y756072D01*
X1206500Y914400D02*
X1206500Y965200D01*
X1266300Y1025000D01*
X1299100Y1025000D01*
X1143000Y927100D02*
X1104900Y927100D01*
X1143000Y927100D02*
X1155700Y914400D01*
X1206500Y914400D01*
X1206500Y774700D02*
X1206500Y736600D01*
X1206500Y774700D02*
X1244600Y812800D01*
X1371600Y812800D01*
X1117600Y736600D02*
X1104900Y749300D01*
X1117600Y736600D02*
X1206500Y736600D01*
X1193800Y673100D02*
X1104900Y673100D01*
X1193800Y673100D02*
X1206500Y685800D01*
X1320800Y901700D02*
X1333500Y901700D01*
X1320800Y901700D02*
X1308100Y889000D01*
X1308100Y863600D01*
X1320800Y850900D01*
X1333500Y850900D01*
M02*
