M48
;GenerationSoftware,Autodesk,EAGLE,8.6.0*%
;CreationDate,2018-04-17T18:32:18Z*%
FMAT,2
ICI,OFF
METRIC,TZ,000.000
T5C0.350
T4C0.813
T3C1.016
T2C2.800
T1C3.200
%
G90
M71
T1
X129910Y107950
T2
X132760Y112750
X136160Y107950
T3
X27940Y11430
X128270Y34290
X128270Y31750
X128270Y29210
X128270Y26670
X128270Y24130
X128270Y21590
X128270Y19050
X128270Y16510
X128270Y13970
X128270Y11430
X128270Y8890
X128270Y6350
X133350Y85090
X133350Y87630
X133350Y90170
X133350Y92710
X133350Y67310
X133350Y69850
X133350Y72390
X133350Y74930
X120650Y91440
X88900Y11430
X120650Y88900
X120650Y86360
X120650Y73660
X120650Y71120
X120650Y68580
X7620Y72390
X7620Y74930
X7620Y77470
X7620Y80010
X7620Y82550
X7620Y85090
X7620Y11430
X10160Y11430
X12700Y11430
X15240Y11430
X17780Y11430
X20320Y11430
X22860Y11430
X25400Y11430
X30480Y11430
X33020Y11430
X35560Y11430
X38100Y11430
X40640Y11430
X43180Y11430
X45720Y11430
X48260Y11430
X50800Y11430
X53340Y11430
X55880Y11430
X7620Y49530
X10160Y49530
X12700Y49530
X15240Y49530
X17780Y49530
X20320Y49530
X22860Y49530
X25400Y49530
X27940Y49530
X30480Y49530
X33020Y49530
X35560Y49530
X38100Y49530
X40640Y49530
X43180Y49530
X45720Y49530
X48260Y49530
X50800Y49530
X53340Y49530
X55880Y49530
X58420Y11430
X60960Y11430
X63500Y11430
X66040Y11430
X68580Y11430
X71120Y11430
X73660Y11430
X76200Y11430
X78740Y11430
X81280Y11430
X83820Y11430
X86360Y11430
X128270Y54610
X58420Y49530
X60960Y49530
X63500Y49530
X66040Y49530
X68580Y49530
X71120Y49530
X73660Y49530
X76200Y49530
X78740Y49530
X81280Y49530
X83820Y49530
X86360Y49530
X88900Y49530
X29210Y104140
X31750Y104140
X34290Y104140
X36830Y104140
X39370Y104140
X41910Y104140
X44450Y104140
X46990Y104140
X49530Y104140
X52070Y104140
X124460Y54610
X124460Y52070
X124460Y49530
X124460Y46990
X124460Y44450
X124460Y41910
X124460Y39370
X124460Y36830
X124460Y34290
X124460Y31750
X124460Y29210
X124460Y26670
X124460Y24130
X124460Y21590
X124460Y19050
X124460Y16510
X124460Y13970
X124460Y11430
X124460Y8890
X124460Y6350
X128270Y52070
X128270Y49530
X128270Y46990
X128270Y44450
X128270Y41910
X128270Y39370
X128270Y36830
T4
X110490Y74930
X107950Y67310
X110490Y67310
X107950Y92710
X110490Y92710
X107950Y85090
X110490Y85090
X107950Y74930
T5
X122301Y32233
X105613Y13259
X115443Y29032
X106299Y15088
X87554Y32233
X87554Y37744
X101498Y35204
X87554Y35687
X82525Y5258
X119558Y7772
X90068Y7772
X50521Y100584
X130759Y53035
X87554Y15088
X58750Y57379
X58522Y54635
X122301Y54407
X56007Y29261
X52578Y4572
X54407Y5486
X107213Y18517
X42062Y56007
X66751Y40005
X49378Y99212
X56236Y6172
X86868Y23317
X82525Y27661
X84353Y26975
X87554Y26975
X96012Y7087
M30